<svg width="44" height="44" viewBox="0 0 44 44" fill="none" xmlns="http://www.w3.org/2000/svg">
<path d="M23.8847 3.66663C25.9472 3.67213 26.994 3.68313 27.8979 3.70879L28.2535 3.72163C28.6642 3.73629 29.0694 3.75463 29.5589 3.77663C31.5095 3.86829 32.8405 4.17629 34.0084 4.62913C35.2184 5.09479 36.2377 5.72546 37.257 6.74296C38.1893 7.65944 38.9106 8.76804 39.3709 9.99163C39.8237 11.1595 40.1317 12.4905 40.2234 14.443C40.2454 14.9306 40.2637 15.3358 40.2784 15.7483L40.2894 16.104C40.3169 17.006 40.3279 18.0528 40.3315 20.1153L40.3334 21.483V23.8846C40.3379 25.2219 40.3238 26.5591 40.2912 27.896L40.2802 28.2516C40.2655 28.6641 40.2472 29.0693 40.2252 29.557C40.1335 31.5095 39.8219 32.8386 39.3709 34.0083C38.912 35.2326 38.1904 36.3414 37.257 37.257C36.3403 38.1889 35.2318 38.9102 34.0084 39.3708C32.8405 39.8236 31.5095 40.1316 29.5589 40.2233C29.1239 40.2438 28.6887 40.2621 28.2535 40.2783L27.8979 40.2893C26.994 40.315 25.9472 40.3278 23.8847 40.3315L22.517 40.3333H20.1172C18.7794 40.3379 17.4415 40.3239 16.104 40.2911L15.7484 40.2801C15.3132 40.2636 14.878 40.2447 14.443 40.2233C12.4924 40.1316 11.1614 39.8236 9.99171 39.3708C8.76827 38.9113 7.66011 38.1899 6.74487 37.257C5.81179 36.3408 5.08978 35.2322 4.62921 34.0083C4.17637 32.8405 3.86837 31.5095 3.77671 29.557C3.75628 29.1219 3.73795 28.6868 3.72171 28.2516L3.71254 27.896C3.67876 26.5591 3.66348 25.2219 3.66671 23.8846V20.1153C3.66159 18.7781 3.67504 17.4408 3.70704 16.104L3.71987 15.7483C3.73454 15.3358 3.75287 14.9306 3.77487 14.443C3.86654 12.4905 4.17454 11.1613 4.62737 9.99163C5.08775 8.76678 5.81119 7.65784 6.74671 6.74296C7.66171 5.81066 8.76914 5.08927 9.99171 4.62913C11.1614 4.17629 12.4905 3.86829 14.443 3.77663C14.9307 3.75463 15.3377 3.73629 15.7484 3.72163L16.104 3.71063C17.4409 3.67805 18.7781 3.664 20.1154 3.66846L23.8847 3.66663ZM22 12.8333C19.5689 12.8333 17.2373 13.7991 15.5182 15.5181C13.7991 17.2372 12.8334 19.5688 12.8334 22C12.8334 24.4311 13.7991 26.7627 15.5182 28.4818C17.2373 30.2009 19.5689 31.1666 22 31.1666C24.4312 31.1666 26.7628 30.2009 28.4819 28.4818C30.2009 26.7627 31.1667 24.4311 31.1667 22C31.1667 19.5688 30.2009 17.2372 28.4819 15.5181C26.7628 13.7991 24.4312 12.8333 22 12.8333ZM22 16.5C22.7223 16.4998 23.4375 16.642 24.1049 16.9183C24.7722 17.1946 25.3786 17.5996 25.8894 18.1102C26.4002 18.6209 26.8054 19.2271 27.0819 19.8944C27.3585 20.5616 27.5008 21.2768 27.501 21.999C27.5011 22.7213 27.3589 23.4365 27.0826 24.1039C26.8064 24.7712 26.4013 25.3776 25.8907 25.8884C25.3801 26.3992 24.7738 26.8044 24.1066 27.0809C23.4393 27.3575 22.7241 27.4998 22.0019 27.5C20.5432 27.5 19.1442 26.9205 18.1128 25.889C17.0813 24.8576 16.5019 23.4587 16.5019 22C16.5019 20.5413 17.0813 19.1423 18.1128 18.1109C19.1442 17.0794 20.5432 16.5 22.0019 16.5M31.6269 10.0833C31.0191 10.0833 30.4362 10.3247 30.0064 10.7545C29.5767 11.1843 29.3352 11.7672 29.3352 12.375C29.3352 12.9827 29.5767 13.5656 30.0064 13.9954C30.4362 14.4252 31.0191 14.6666 31.6269 14.6666C32.2347 14.6666 32.8176 14.4252 33.2473 13.9954C33.6771 13.5656 33.9185 12.9827 33.9185 12.375C33.9185 11.7672 33.6771 11.1843 33.2473 10.7545C32.8176 10.3247 32.2347 10.0833 31.6269 10.0833Z" fill="black"/>
</svg>
